# xmcd
#
# Track frame offsets:
#	300
#	11198
#	22735
#	34960
#	48484
#	62964
#	76439
#	90141
#	103122
#	118652
#	142418
#	155995
#	166359
#	180825
#	201229
#
# Disc length: 2923 seconds
#
# Revision: 1
# Processed by: cddbd v1.5.2PL0 Copyright (c) Steve Scherf et al.
# Submitted via: audiograbber 1.83.01
#
DISCID=ce0b670f
DTITLE=brenda lee - cb90123
DYEAR=1900
DGENRE=
TTITLE0=BRENDA LEE - ALL ALONE AM I
TTITLE1=BRENDA LEE - BIG FOUR POSTER BED
TTITLE2=BRENDA LEE - BREAK IT TO ME GENTLY
TTITLE3=BRENDA LEE - BROKEN TRUST
TTITLE4=BRENDA LEE - COWGIRLS and THE DADDY 
TTITLE5=BRENDA LEE - FOOL #1
TTITLE6=BRENDA LEE - HE'S MY ROCK
TTITLE7=BRENDA LEE - I'M SORRY
TTITLE8=BRENDA LEE - JOHNNY ONE TIME
TTITLE9=BRENDA LEE - NOBODY WINS
TTITLE10=BRENDA LEE - ROCK ON BABY
TTITLE11=BRENDA LEE - SWEET NOTHING
TTITLE12=BRENDA LEE - TELL ME WHAT IT'S LIKE
TTITLE13=BRENDA LEE - TWO MANY RIVERS
TTITLE14=BRENDA LEE - BROKEN TRUST
EXTD=
EXTT0=
EXTT1=
EXTT2=
EXTT3=
EXTT4=
EXTT5=
EXTT6=
EXTT7=
EXTT8=
EXTT9=
EXTT10=
EXTT11=
EXTT12=
EXTT13=
EXTT14=
PLAYORDER=
